<svg id="Layer_1" data-name="Layer 1" xmlns="http://www.w3.org/2000/svg" viewBox="0 0 200 200"><defs><style>.cls-1{fill:none;stroke:#000;stroke-miterlimit:10;stroke-width:2px;}</style></defs><path class="cls-1" d="M132.11,101.69c1.65,2.77,5.88,25.55-7.27,32.58s-37.53,3.41-37.53,3.41-21.61-4.53-26.14-18,7-22,2.84-28.12c-3-4.42-1.54-16.26-1.54-16.26s1.29-11.72,13.22-23.73c0,0-7.81,22.34,3,27.28a33.67,33.67,0,0,1,8.42,7.94s-9.72-12.73,4.83-41.2c0,0,5.88-7.42,1.39-22.2,0,0,31.3,28.1,18,56.2,0,0,14.49-5.26,13.18-31.17,0,0,16.38,26.56,6.11,45.83A12.19,12.19,0,0,0,132.11,101.69Z"/><path class="cls-1" d="M62.28,159s58.35-23.81,75.12-26.21c0,0,8,2.4,7,10.79,0,0-19,2.39-72.9,32.35,0,0-8.39,2.39-13.18-2.4C58.33,173.51,51.86,164.82,62.28,159Z"/><path class="cls-1" d="M62.28,159s9.23-1,10.43,7.34c0,0,2,8.24-4.38,10.11"/><path class="cls-1" d="M66.93,128.46s-5,1.92-6.21,10.3l21.17,12.46"/><path class="cls-1" d="M115.05,153.9l20,12.42s3.59,10.78-8.39,13.18l-27.77-18"/><path class="cls-1" d="M126.62,179.5a8.2,8.2,0,0,1-2.4-9.58c2.4-6,8.39-4.8,10.79-3.6"/><line class="cls-1" x1="101.66" y1="143.78" x2="90.61" y2="138.06"/></svg>