<svg xmlns="http://www.w3.org/2000/svg" viewBox="0 0 61.59 127.47"><defs><style>.cls-1{fill:none;stroke:#000;stroke-miterlimit:10;stroke-width:2px;}</style></defs><g id="Layer_2" data-name="Layer 2"><g id="Layer_1-2" data-name="Layer 1"><path class="cls-1" d="M21.78,60.81s-6.86-8.91,3-32c0,0,3.66-23.83-5.36-27.91,0,0,27.42,12.93,20.13,51.8,0,0,10.53-6.48,9.72-27.54,0,0,9.71,25.92,2.43,42.12,0,0-.81,4,0,6.48s2.43,17-6.48,22.67-23.49,5.67-23.49,5.67-14.58-4-16.2-15.38c0,0-1.62-4,2.43-15.39,0,0,1-3.12-2.75-18.16,0,0-2.11-7.76,6-17.48,0,0-2.43,14.58,4.86,18.63A24.87,24.87,0,0,1,21.78,60.81Z"/><path class="cls-1" d="M5,112.54S44.46,96.44,55.8,94.83c0,0,5.42,1.61,4.73,7.28,0,0-12.83,1.62-49.28,21.87,0,0-5.67,1.62-8.91-1.62C2.34,122.36-2,116.49,5,112.54Z"/><path class="cls-1" d="M5,112.54s6.24-.71,7.05,5c0,0,1.38,5.57-3,6.84"/><path class="cls-1" d="M8,94s-3.24-.81-4,4.85l14.31,8.42"/><path class="cls-1" d="M40.69,109.11l13.49,8.39s2.43,7.29-5.67,8.91L29.74,114.25"/><path class="cls-1" d="M48.51,126.41a5.54,5.54,0,0,1-1.62-6.48c1.62-4.05,5.67-3.24,7.29-2.43"/></g></g></svg>