<svg xmlns="http://www.w3.org/2000/svg" width="132.373" height="119.008" viewBox="0 0 132.373 119.008">
  <g id="Social_Buttons_Square_Button_Facebook" data-name="Social Buttons / Square Button / Facebook" transform="translate(-0.001 0)">
    <path id="Facebook" d="M50.267,118.585c-14.852-.243-29.7-.483-44.551-.409a3.279,3.279,0,0,1-3.382-3.4C.224,105.185.455,95.3.536,85.542.618,75.1.1,64.659.022,54.218-.119,37.6.466,20.989.478,4.362A3.182,3.182,0,0,1,2.056,1.491a3.163,3.163,0,0,1,2.412-.9C45.514,1.667,86.557.851,127.591,0a3.154,3.154,0,0,1,2.484.987,3.119,3.119,0,0,1,1,2.524c-1.143,37.056,2.2,74.085,1.052,111.154a3.3,3.3,0,0,1-1.354,2.669,3.451,3.451,0,0,1-2.136.819c-13.091.642-26.183.855-39.281.855C76.331,119.008,63.3,118.8,50.267,118.585Zm-.026-7c24.995.406,49.994.813,74.981-.277.826-34.75-2.051-69.476-1.237-104.236-38.833.8-77.672,1.526-116.516.6-.076,14.9-.556,29.812-.458,44.715.058,10.137.573,20.266.55,30.391-.022,9.427-.575,19.067,1.176,28.387l2.47,0C24.215,111.161,37.228,111.374,50.241,111.587Zm6.507-17.679a3.289,3.289,0,0,1-3.042-1.983,3.7,3.7,0,0,1-.457-1.516A194.272,194.272,0,0,1,52.571,69.6c-2.454-.058-4.905-.088-7.361-.172-1.388-.047-3.151-1.026-3.373-2.567a72.59,72.59,0,0,1-.769-8.831c-.035-2.382-.269-5.241,1.833-6.86,1.771-1.377,5.028-1.2,7.2-1.494,1.133-.151,2.248-.249,3.364-.294C53.378,42,52.4,33.313,57.04,27.475c4.68-5.9,13.1-7.012,20.091-5.554,6.779,1.412,14.084,6.045,15.8,13.162,1.48,6.177-2.416,12.728-8.728,12.354a2.739,2.739,0,0,1-2.316-.467,2.964,2.964,0,0,1-1.647-1.7c-.524-.8-.86-1.647-1.51-2.613-.769-1.143-2.578-1.914-3.838-.874-1.155.956-.62,3.99-.526,5.2.055.7.119,1.4.174,2.1,2.6-.137,5.2-.19,7.806-.293A3.022,3.022,0,0,1,85.4,50.579a3.5,3.5,0,0,1,.451,1.714c.094,4.806.047,9.6.43,14.4A2.917,2.917,0,0,1,85.151,69.4a3.078,3.078,0,0,1-2.374.787c-2.113-.117-4.227-.1-6.337-.076-.86.007-1.719.015-2.579.014q-.024,10.026.761,20.024A2.9,2.9,0,0,1,72.34,93.4a3.741,3.741,0,0,1-1.216.251c-3.631.16-7.266.306-10.9.306Q58.484,93.957,56.747,93.908Zm10.635-7.1q-.628-9.677-.5-19.375c-.567-2.055.506-4.549,3.225-4.393,2.11.117,4.224.1,6.334.076.874-.008,1.748-.017,2.621-.016-.1-2.395-.133-4.79-.163-7.188-2.384.078-4.768.164-7.147.36a3.444,3.444,0,0,1-1.353-.137,3.068,3.068,0,0,1-2.742-3.315c.222-5.635-2.438-14.165,4.107-17.258,2.6-1.236,5.963-1.76,8.635-.477a10.5,10.5,0,0,1,3.628,3.008,11.142,11.142,0,0,1,1.091,1.616,3.612,3.612,0,0,0,.31-4.776A7.8,7.8,0,0,0,83.14,32.4a16.017,16.017,0,0,0-5.39-3.045c-3.6-1.248-8.424-1.505-11.923.105C57.89,33.111,60.808,45.829,60.4,52.921a3.788,3.788,0,0,1-.243,1.157A2.977,2.977,0,0,1,56.9,56.434a38.932,38.932,0,0,0-8.841.414c0,.064,0,.128,0,.191,0,.818.012,1.645.047,2.476q.057,1.5.192,3c2.373.055,4.745.085,7.121.167a4.05,4.05,0,0,1,.472.045,3.213,3.213,0,0,1,3.786,3.352,199.007,199.007,0,0,0,.309,20.873C62.451,86.96,64.916,86.9,67.382,86.805ZM48.58,65Z" transform="translate(0.001 0)"/>
  </g>
</svg>
