<svg xmlns="http://www.w3.org/2000/svg" viewBox="0 0 105.64 128.98"><defs><style>.cls-1{fill:none;stroke:#000;stroke-miterlimit:10;stroke-width:2px;}</style></defs><g id="Layer_2" data-name="Layer 2"><g id="Layer_1-2" data-name="Layer 1"><path class="cls-1" d="M.9,117.42S19.09,90.55,33,106.64c0,0,5,6,11,.08S52,99.77,57,99.81s7,3,10,7.06,7,3,9,.07,3-5,9-5.94,19.91,13.13,19.91,13.13"/><path class="cls-1" d="M.83,128.42S19,101.55,32.9,117.64c0,0,5,6,11,.08s8.05-7,13.05-6.91,7,3,10,7.06,7,3,9,.06,3-5,9-5.93,19.91,13.13,19.91,13.13"/><path class="cls-1" d="M18,101.54,4.29,60.44S28.44,39.61,49.48,33.75c0,0,32.94,8.23,49.81,27.34L89,102"/><line class="cls-1" x1="49.48" y1="33.75" x2="51.16" y2="79.77"/><path class="cls-1" d="M61.28,49.83s-3,8,3,9,4.07-10,1.08-11"/><path class="cls-1" d="M39.54,50.68s2.86,8-3.15,9-3.93-10-.92-11"/><path class="cls-1" d="M22.6,46.89s-2.11-15.34-2.07-21.34c0,0,29.1-14.8,61-2.58,0,0,1.09,5.87-1.09,23.42"/><path class="cls-1" d="M32.57,20.64l-.94-9S47.45,3.93,68.52,10L68,19.25"/><path class="cls-1" d="M36.55,29.81s14-6,27-1"/><line class="cls-1" x1="49.65" y1="7.64" x2="49.71" y2="0.01"/></g></g></svg>