<svg xmlns="http://www.w3.org/2000/svg" width="132.373" height="119.008" viewBox="0 0 132.373 119.008">
  <g id="Social_Buttons_Square_Button_Instagram" data-name="Social Buttons / Square Button / Instagram" transform="translate(-1.001 22)">
    <path id="Instagram" d="M50.217,118.585c-14.835-.24-29.669-.482-44.5-.409a3.28,3.28,0,0,1-3.382-3.417C.224,105.175.455,95.3.536,85.542.618,75.1.1,64.66.022,54.219-.119,37.6.466,20.989.478,4.365A3.184,3.184,0,0,1,2.053,1.494a3.16,3.16,0,0,1,2.414-.9C45.514,1.667,86.557.851,127.591,0a3.155,3.155,0,0,1,2.474.977,3.119,3.119,0,0,1,1.016,2.534c-1.146,37.056,2.192,74.085,1.049,111.153a3.3,3.3,0,0,1-1.356,2.671,3.45,3.45,0,0,1-2.135.816c-13.1.642-26.2.855-39.305.855C76.3,119.008,63.255,118.8,50.217,118.585Zm-.006-7c25,.408,50.012.816,75.01-.274.826-34.75-2.048-69.479-1.237-104.239-38.833.8-77.672,1.526-116.515.6-.076,14.9-.556,29.811-.458,44.715.058,10.137.573,20.266.55,30.394-.022,9.424-.575,19.064,1.176,28.384l2.466,0C24.2,111.161,37.206,111.374,50.211,111.587ZM78.638,96.331c-1.651-.044-3.239-.091-4.7-.076-16.194.161-38.117.418-44.755-17.746C25.619,68.779,26,57.2,26.227,47.007c.175-8.459.643-17.7,9.041-22.134,7.98-4.212,18.693-3.452,27.442-3.92,9.881-.519,19.735-.569,29.627-.387.082,0,.167,0,.253,0q.186,0,.361.022c7.8.563,11.286,6.424,12.311,13.731,1.505,10.851.476,22.18-.187,33.066-.491,7.956.57,19.552-6.4,25.188-4.031,3.266-9.883,3.835-15.561,3.835C81.6,96.413,80.093,96.372,78.638,96.331ZM64.4,27.873c-4.352.21-8.7.479-13.057.771-4.841.313-11.4.219-15.048,4.025-3.841,3.99-3.046,11.4-3.1,16.484-.058,5.007.07,10.023.433,15.016.78,10.768,3.756,20.172,15.282,23.183,8.4,2.18,17.758,2.031,26.416,1.891,4.06-.07,8.167-.047,12.227-.3,7.29-.468,9.2-4.306,9.833-11.061.959-10.208,1.47-20.593,1.494-30.847.011-5.175,1.4-18.868-6.115-19.451-.053,0-.107,0-.161,0q-5.34-.106-10.671-.113C76.085,27.467,70.243,27.582,64.4,27.873ZM48.139,63.727C45.467,52.631,52.292,43.134,63.33,41.2c9.751-1.713,20.684,2.941,22.388,13.511.011.071.021.141.028.21a3.962,3.962,0,0,1,.1.733c.479,10.69-5.261,20.781-16.521,22.333a19.665,19.665,0,0,1-2.676.183A18.929,18.929,0,0,1,48.139,63.727Zm7.036-.807a12.008,12.008,0,0,0,14.092,8c7.238-1.517,9.8-8.258,9.591-14.958-1.21-5.643-6.005-8.161-11.022-8.161C60.266,47.806,52.192,53.54,55.174,62.92ZM81.856,39.784a4.289,4.289,0,0,1,3.709-6.6A4.712,4.712,0,0,1,89.71,35.89a4.637,4.637,0,0,1,.9,1.737,4.087,4.087,0,0,1-2.742,4.852,3.809,3.809,0,0,1-1.238.2A5.975,5.975,0,0,1,81.856,39.784Z" transform="translate(1.001 -22.001)"/>
  </g>
</svg>
