<svg xmlns="http://www.w3.org/2000/svg" viewBox="0 0 80 82.5"><defs><style>.cls-1{fill:none;stroke:#000;stroke-miterlimit:10;stroke-width:2px;}</style></defs><g id="Layer_2" data-name="Layer 2"><g id="Layer_1-2" data-name="Layer 1"><circle class="cls-1" cx="17.5" cy="65" r="16.5"/><circle class="cls-1" cx="17.5" cy="65" r="12.5"/><path class="cls-1" d="M17.5,55.92S7.84,55.5,8.42,65"/><circle class="cls-1" cx="41" cy="52.5" r="5"/><path class="cls-1" d="M34,65l5-52.5s-11-11-25-1L1,61"/><path class="cls-1" d="M20,8.5l2-6.29S29-1,34,3V9.16"/><circle class="cls-1" cx="62.5" cy="65" r="16.5"/><circle class="cls-1" cx="62.5" cy="65" r="12.5"/><path class="cls-1" d="M62.5,55.92S52.84,55.5,53.42,65"/><path class="cls-1" d="M46,63.5l2-50.74s14.67-7.53,23.66.94L79,63.5"/><path class="cls-1" d="M66,10.5,65,4.06s-7-3.21-12,.8V11"/><path class="cls-1" d="M38,24.25s5-4.86,9.48.7"/></g></g></svg>