<svg id="Layer_1" data-name="Layer 1" xmlns="http://www.w3.org/2000/svg" viewBox="0 0 200 200"><defs><style>.cls-1{fill:none;stroke:#000;stroke-miterlimit:10;stroke-width:2px;}</style></defs><polyline class="cls-1" points="194.87 102.44 198 103.15 198.43 95.25 137.9 62.42 2.85 59.25 1.88 77.12 137.97 80.35 193.83 102.19 191.92 137.07 147.28 142.01 17.56 138.08"/><polyline class="cls-1" points="136.85 62.36 135.63 80.22 146.38 141.8"/><polyline class="cls-1" points="7.96 77.45 18.71 139.04 19.15 147.65 26.58 147 25.86 138.33"/><polyline class="cls-1" points="129.31 79.87 140.06 141.46 140.5 150.07 147.93 149.42 147.21 140.75"/><polyline class="cls-1" points="186.62 137.41 186.95 143.99 192.62 143.5 192.08 136.87"/><line class="cls-1" x1="13.22" y1="77.74" x2="23.98" y2="139.32"/><line class="cls-1" x1="22.58" y1="131.3" x2="138.75" y2="133.96"/></svg>