<svg xmlns="http://www.w3.org/2000/svg" viewBox="0 0 188.43 88.36"><defs><style>.cls-1{fill:none;stroke:#000;stroke-miterlimit:10;stroke-width:2px;}</style></defs><g id="Layer_2" data-name="Layer 2"><g id="Layer_1-2" data-name="Layer 1"><polyline class="cls-1" points="184.02 42.02 186.98 42.7 187.39 35.2 130.01 4.02 1.98 1.02 1.05 18 130.08 21.05 183.03 41.8 181.22 74.92 138.9 79.62 15.92 75.89"/><polyline class="cls-1" points="129.01 3.96 127.86 20.93 138.04 79.42"/><polyline class="cls-1" points="6.82 18.31 17.01 76.81 17.42 84.99 24.46 84.37 23.79 76.13"/><polyline class="cls-1" points="121.86 20.6 132.05 79.09 132.47 87.28 139.51 86.66 138.83 78.42"/><polyline class="cls-1" points="176.19 75.25 176.51 81.5 181.88 81.03 181.36 74.73"/><line class="cls-1" x1="11.81" y1="18.59" x2="22" y2="77.08"/><line class="cls-1" x1="20.67" y1="69.46" x2="130.81" y2="71.97"/></g></g></svg>