<svg id="Layer_1" data-name="Layer 1" xmlns="http://www.w3.org/2000/svg" width="196" height="276" viewBox="0 0 196 276"><defs><style>.cls-1,.cls-4{fill:#5d6f49;}.cls-1,.cls-3{opacity:0.41;}.cls-2{fill:#29381c;}</style></defs><path id="Path_24" data-name="Path 24" class="cls-1" d="M50.76,42.42,50.63,65.5a3.09,3.09,0,0,0,3.07,3.11l84.63.47A3.06,3.06,0,0,0,140,68.6L158.24,57a3.08,3.08,0,0,0,0-5.21L140.15,40.31a3,3,0,0,0-1.63-.48l-84.66-.48A3.09,3.09,0,0,0,50.76,42.42Z"/><path id="Path_24-2" data-name="Path 24" class="cls-1" d="M109.24,125.12l0-23.08a3.09,3.09,0,0,0-3.1-3.08l-84.63.18a3.14,3.14,0,0,0-1.67.5L1.65,111.39a3.09,3.09,0,0,0,0,5.22l18.17,11.32a3.07,3.07,0,0,0,1.64.47l84.66-.19A3.09,3.09,0,0,0,109.24,125.12Z"/><path id="Path_24-3" data-name="Path 24" class="cls-1" d="M48.23,154.06l-.13,23.08a3.09,3.09,0,0,0,3.08,3.11l84.63.47a3,3,0,0,0,1.67-.48l18.24-11.61a3.09,3.09,0,0,0,0-5.21L137.63,152a3.08,3.08,0,0,0-1.64-.48L51.34,151A3.09,3.09,0,0,0,48.23,154.06Z"/><g id="Group_21" data-name="Group 21"><g id="Group_7" data-name="Group 7"><path id="Path_21" data-name="Path 21" class="cls-2" d="M43.18,267.48v2.93a2.16,2.16,0,0,0,2.16,2.16h80.84a2.16,2.16,0,0,0,2.16-2.16v-2.93a2.16,2.16,0,0,0-2.16-2.16H91.69a2.16,2.16,0,0,1-2.16-2.15V2.43A2.15,2.15,0,0,0,87.38.28H82.51a2.15,2.15,0,0,0-2.15,2.15V263.17a2.16,2.16,0,0,1-2.16,2.15H45.34A2.16,2.16,0,0,0,43.18,267.48Z"/></g><g id="Group_7-2" data-name="Group 7" class="cls-3"><path id="Path_21-2" data-name="Path 21" class="cls-2" d="M49.35,270.63v2.94a2.16,2.16,0,0,0,2.16,2.15h80.84a2.16,2.16,0,0,0,2.16-2.15v-2.94a2.16,2.16,0,0,0-2.16-2.15H97.86a2.16,2.16,0,0,1-2.16-2.16V5.59a2.16,2.16,0,0,0-2.15-2.16H88.68a2.16,2.16,0,0,0-2.15,2.16V266.32a2.16,2.16,0,0,1-2.16,2.16H51.51A2.16,2.16,0,0,0,49.35,270.63Z"/></g></g><path id="Path_24-4" data-name="Path 24" class="cls-4" d="M117.07,117.83l0-23.07a3.1,3.1,0,0,0-3.1-3.09l-84.63.19a3.11,3.11,0,0,0-1.67.5L9.48,104.11a3.08,3.08,0,0,0,0,5.21l18.17,11.33a3.09,3.09,0,0,0,1.64.47l84.66-.19A3.09,3.09,0,0,0,117.07,117.83Z"/><path id="Path_24-5" data-name="Path 24" class="cls-4" d="M43.31,146.78l-.13,23.08a3.09,3.09,0,0,0,3.08,3.1l84.63.48a3.09,3.09,0,0,0,1.67-.48l18.24-11.61a3.1,3.1,0,0,0,0-5.22l-18.08-11.47a3.17,3.17,0,0,0-1.64-.48l-84.65-.47A3.09,3.09,0,0,0,43.31,146.78Z"/><path id="Path_24-6" data-name="Path 24" class="cls-4" d="M43.31,37.22,43.18,60.3a3.09,3.09,0,0,0,3.08,3.1l84.63.48a3.09,3.09,0,0,0,1.67-.48L150.8,51.79a3.09,3.09,0,0,0,0-5.21L132.71,35.11a3.09,3.09,0,0,0-1.64-.49l-84.65-.47A3.09,3.09,0,0,0,43.31,37.22Z"/></svg>