<svg id="Layer_1" data-name="Layer 1" xmlns="http://www.w3.org/2000/svg" width="196" height="276" viewBox="0 0 196 276"><defs><style>.cls-1,.cls-4{fill:#5d6f49;}.cls-1,.cls-3{opacity:0.41;}.cls-2{fill:#29381c;}.cls-5{fill:#fff;}</style></defs><path id="Path_24" data-name="Path 24" class="cls-1" d="M50.76,42.42,50.63,65.5a3.09,3.09,0,0,0,3.07,3.11l84.63.47A3.06,3.06,0,0,0,140,68.6L158.24,57a3.08,3.08,0,0,0,0-5.21L140.15,40.31a3,3,0,0,0-1.63-.48l-84.66-.48A3.09,3.09,0,0,0,50.76,42.42Z"/><path id="Path_24-2" data-name="Path 24" class="cls-1" d="M109.24,125.12l0-23.08a3.09,3.09,0,0,0-3.1-3.08l-84.63.18a3.14,3.14,0,0,0-1.67.5L1.65,111.39a3.09,3.09,0,0,0,0,5.22l18.17,11.32a3.07,3.07,0,0,0,1.64.47l84.66-.19A3.09,3.09,0,0,0,109.24,125.12Z"/><path id="Path_24-3" data-name="Path 24" class="cls-1" d="M48.23,154.06l-.13,23.08a3.09,3.09,0,0,0,3.08,3.11l84.63.47a3,3,0,0,0,1.67-.48l18.24-11.61a3.09,3.09,0,0,0,0-5.21L137.63,152a3.08,3.08,0,0,0-1.64-.48L51.34,151A3.09,3.09,0,0,0,48.23,154.06Z"/><g id="Group_21" data-name="Group 21"><g id="Group_7" data-name="Group 7"><path id="Path_21" data-name="Path 21" class="cls-2" d="M43.18,267.48v2.93a2.16,2.16,0,0,0,2.16,2.16h80.84a2.16,2.16,0,0,0,2.16-2.16v-2.93a2.16,2.16,0,0,0-2.16-2.16H91.69a2.16,2.16,0,0,1-2.16-2.15V2.43A2.15,2.15,0,0,0,87.38.28H82.51a2.15,2.15,0,0,0-2.15,2.15V263.17a2.16,2.16,0,0,1-2.16,2.15H45.34A2.16,2.16,0,0,0,43.18,267.48Z"/></g><g id="Group_7-2" data-name="Group 7" class="cls-3"><path id="Path_21-2" data-name="Path 21" class="cls-2" d="M49.35,270.63v2.94a2.16,2.16,0,0,0,2.16,2.15h80.84a2.16,2.16,0,0,0,2.16-2.15v-2.94a2.16,2.16,0,0,0-2.16-2.15H97.86a2.16,2.16,0,0,1-2.16-2.16V5.59a2.16,2.16,0,0,0-2.15-2.16H88.68a2.16,2.16,0,0,0-2.15,2.16V266.32a2.16,2.16,0,0,1-2.16,2.16H51.51A2.16,2.16,0,0,0,49.35,270.63Z"/></g></g><path id="Path_24-4" data-name="Path 24" class="cls-4" d="M117.07,117.83l0-23.07a3.1,3.1,0,0,0-3.1-3.09l-84.63.19a3.11,3.11,0,0,0-1.67.5L9.48,104.11a3.08,3.08,0,0,0,0,5.21l18.17,11.33a3.09,3.09,0,0,0,1.64.47l84.66-.19A3.09,3.09,0,0,0,117.07,117.83Z"/><path id="Path_24-5" data-name="Path 24" class="cls-4" d="M43.31,146.78l-.13,23.08a3.09,3.09,0,0,0,3.08,3.1l84.63.48a3.09,3.09,0,0,0,1.67-.48l18.24-11.61a3.1,3.1,0,0,0,0-5.22l-18.08-11.47a3.17,3.17,0,0,0-1.64-.48l-84.65-.47A3.09,3.09,0,0,0,43.31,146.78Z"/><path id="Path_24-6" data-name="Path 24" class="cls-4" d="M43.31,37.22,43.18,60.3a3.09,3.09,0,0,0,3.08,3.1l84.63.48a3.09,3.09,0,0,0,1.67-.48L150.8,51.79a3.09,3.09,0,0,0,0-5.21L132.71,35.11a3.09,3.09,0,0,0-1.64-.49l-84.65-.47A3.09,3.09,0,0,0,43.31,37.22Z"/><path class="cls-5" d="M63.73,55V40.39h2.9v5.22H68V40.39h2.91V55H68V48.36H66.63V55Z"/><path class="cls-5" d="M74.11,55l-2-12.44h3l.61,6.29.1,2,.12-2,.68-6.27h3L77.56,55Z"/><path class="cls-5" d="M81,54.17a5.83,5.83,0,0,1-.53-2.75,5.16,5.16,0,0,1,.38-2.24A2.48,2.48,0,0,1,81.93,48,14.16,14.16,0,0,1,84,47.22l.81-.27V45.68a1.28,1.28,0,0,0-.19-.76.56.56,0,0,0-.47-.26.52.52,0,0,0-.42.22.89.89,0,0,0-.18.59v.75H80.67v-.41a3.44,3.44,0,0,1,.86-2.62,4.11,4.11,0,0,1,2.8-.78,3.81,3.81,0,0,1,2.52.81,2.83,2.83,0,0,1,1,2.29V55h-3V53.51a2.47,2.47,0,0,1-.71,1.19,1.66,1.66,0,0,1-1.15.43A2.07,2.07,0,0,1,81,54.17Zm3.64-1.63a1.47,1.47,0,0,0,.15-.69V48.38a2.24,2.24,0,0,0-1,.65,1.67,1.67,0,0,0-.32,1.08v1.6c0,.74.22,1.11.67,1.11A.52.52,0,0,0,84.66,52.54Z"/><path class="cls-5" d="M90.13,54.61a2.6,2.6,0,0,1-.73-1.38,11.08,11.08,0,0,1-.17-2.2l0-5.61a3.37,3.37,0,0,1,.67-2.17,2.29,2.29,0,0,1,1.9-.84,2.12,2.12,0,0,1,1.8.8V40.3h3V55h-3V53.67a2.44,2.44,0,0,1-.69,1.09,1.73,1.73,0,0,1-1.17.37A2.31,2.31,0,0,1,90.13,54.61Zm3.36-2.24a4.05,4.05,0,0,0,.14-1.17V46a2.5,2.5,0,0,0-.15-.92.56.56,0,0,0-.55-.37.57.57,0,0,0-.59.35,2.62,2.62,0,0,0-.14.94v5.24c0,1,.24,1.56.71,1.56A.55.55,0,0,0,93.49,52.37Z"/><path class="cls-5" d="M60.6,163.57a6,6,0,0,1-.77-3.37v-6.29a4.54,4.54,0,0,1,.9-3.06,3.38,3.38,0,0,1,2.69-1,3.8,3.8,0,0,1,2.24.58,3,3,0,0,1,1.1,1.68,10.68,10.68,0,0,1,.31,2.84H64.21V153.6a1.79,1.79,0,0,0-.14-.81.54.54,0,0,0-.52-.29c-.55,0-.83.36-.83,1.09v7.07a2.19,2.19,0,0,0,.17,1,.69.69,0,0,0,1.19,0,2.34,2.34,0,0,0,.17-1v-2.09h-.78v-2.52H67v8.5H65.86l-.49-1.22A2.61,2.61,0,0,1,63,164.69,2.67,2.67,0,0,1,60.6,163.57Z"/><path class="cls-5" d="M69.13,163.72a4,4,0,0,1-.89-2.74,5.23,5.23,0,0,1,.4-2.28,2.71,2.71,0,0,1,1.1-1.19,12.38,12.38,0,0,1,2.14-.86l.68-.24v0l0-.76a3,3,0,0,0-.14-1,.5.5,0,0,0-.51-.36c-.41,0-.61.22-.61.68v.83H68.43a2.89,2.89,0,0,1,0-.41,3.39,3.39,0,0,1,.87-2.62,4.09,4.09,0,0,1,2.81-.79,2.33,2.33,0,0,1,2,1,2.43,2.43,0,0,1,2.21-1c2.39,0,3.58,1.17,3.58,3.53v.9q0,1.89,0,2.31H75.57v1.76c0,1.29.24,1.93.71,1.93a.55.55,0,0,0,.57-.47,4.94,4.94,0,0,0,.13-1.28,7,7,0,0,0,0-.9h3v.72a5.52,5.52,0,0,1-.75,3.19,3,3,0,0,1-2.65,1.06,2.83,2.83,0,0,1-1.49-.39,2,2,0,0,1-.9-1,2.26,2.26,0,0,1-.94,1,3,3,0,0,1-1.55.38A3.2,3.2,0,0,1,69.13,163.72Zm3.28-1.62a1.47,1.47,0,0,0,.15-.69v-3.28a2.49,2.49,0,0,0-1,.64,1.6,1.6,0,0,0-.31,1.06v1.44q0,1.11.66,1.11A.52.52,0,0,0,72.41,162.1ZM77,156.82v-1.29q0-1.35-.66-1.35a.56.56,0,0,0-.61.38,4.53,4.53,0,0,0-.12,1.25v1Z"/><path class="cls-5" d="M81.32,152.11h3v1.58a2.68,2.68,0,0,1,.65-1.24,1.6,1.6,0,0,1,1.22-.48,2.2,2.2,0,0,1,1.86.78,3.45,3.45,0,0,1,.61,2.2v9.6H85.7v-9.3a1.35,1.35,0,0,0-.16-.69.52.52,0,0,0-.5-.29.57.57,0,0,0-.6.41,3.4,3.4,0,0,0-.15,1.12v8.75h-3Z"/><path class="cls-5" d="M91.44,166.16a4.14,4.14,0,0,1-1.49-.81l1-1.72a4.24,4.24,0,0,0,2.16.65,1.27,1.27,0,0,0,1.05-.44,1.88,1.88,0,0,0,.36-1.21V162a1.73,1.73,0,0,1-1.89,1.28,2.11,2.11,0,0,1-1.87-.87,3.92,3.92,0,0,1-.61-2.31v-4.68a4.71,4.71,0,0,1,.56-2.52,2.07,2.07,0,0,1,1.92-.88,1.91,1.91,0,0,1,1.27.4,2,2,0,0,1,.62,1.13v-1.39h3v10.33a4,4,0,0,1-1,3,4.37,4.37,0,0,1-3.1.92A8.1,8.1,0,0,1,91.44,166.16Zm3.1-6.44v-4.43a1.45,1.45,0,0,0-.2-.72.62.62,0,0,0-.51-.34.54.54,0,0,0-.53.28,1.84,1.84,0,0,0-.14.78v4.43a2.52,2.52,0,0,0,.14.91.52.52,0,0,0,.54.35C94.31,161,94.54,160.56,94.54,159.72Z"/><path class="cls-5" d="M99.85,163.63a5,5,0,0,1-.84-3.14v-5a3.37,3.37,0,0,1,1-2.62,3.93,3.93,0,0,1,2.75-.9q3.59,0,3.59,3.52v.9c0,.91,0,1.65,0,2.21H102V161a3.05,3.05,0,0,0,.13,1,.56.56,0,0,0,.58.36.55.55,0,0,0,.49-.2,1.06,1.06,0,0,0,.17-.47c0-.17,0-.43,0-.77v-1.21h3v.72a5,5,0,0,1-.84,3.2,3.55,3.55,0,0,1-2.9,1A3.27,3.27,0,0,1,99.85,163.63Zm3.53-6.51v-1.59q0-1.35-.66-1.35t-.75,1.35v1.59Z"/><path class="cls-5" d="M107.78,152.11h3v1.38a2.12,2.12,0,0,1,.77-1.14,2.33,2.33,0,0,1,1.37-.39v2.48a6,6,0,0,0-1.38.18c-.51.11-.76.25-.76.41v9.52h-3Z"/><path class="cls-5" d="M114.46,157.33a9.17,9.17,0,0,0,2.34-.23,1.9,1.9,0,0,0,1.2-1,5.22,5.22,0,0,0,.39-2.31,2.64,2.64,0,0,0-.15-1,.6.6,0,0,0-.61-.36.61.61,0,0,0-.63.41,3.35,3.35,0,0,0-.16,1.13v1.22h-3v-2.11a3,3,0,0,1,1-2.46,4.3,4.3,0,0,1,2.79-.84,3.62,3.62,0,0,1,3,1.13,5.47,5.47,0,0,1,.9,3.43,5.64,5.64,0,0,1-1.1,3.62,3.85,3.85,0,0,1-3.2,1.38v1.41h-2.78Zm-.08,7.22v-2.48h3v2.48Z"/><path class="cls-5" d="M58.24,111.46a5,5,0,0,1-.84-3.15v-5a3.35,3.35,0,0,1,1-2.61,3.88,3.88,0,0,1,2.75-.91c2.39,0,3.59,1.18,3.59,3.52v.9c0,.91,0,1.65,0,2.21H60.38v2.42a3,3,0,0,0,.13,1,.57.57,0,0,0,.58.37.56.56,0,0,0,.49-.21,1,1,0,0,0,.17-.47c0-.17,0-.43,0-.77v-1.21h3v.72a5,5,0,0,1-.84,3.2,3.55,3.55,0,0,1-2.9,1A3.3,3.3,0,0,1,58.24,111.46ZM61.77,105v-1.6q0-1.35-.66-1.35t-.75,1.35V105Z"/><path class="cls-5" d="M66.18,99.93h3v1.38a2.11,2.11,0,0,1,.77-1.13,2.27,2.27,0,0,1,1.37-.4v2.48a6,6,0,0,0-1.38.18c-.51.12-.76.26-.76.41v9.52h-3Z"/></svg>