<svg id="Layer_1" data-name="Layer 1" xmlns="http://www.w3.org/2000/svg" width="186" height="276" viewBox="0 0 186 276"><defs><style>.cls-1,.cls-4{fill:#5d6f49;}.cls-1,.cls-3{opacity:0.41;}.cls-2{fill:#29381c;}.cls-5{fill:#fff;}</style></defs><path id="Path_24" data-name="Path 24" class="cls-1" d="M40.58,42.42,40.45,65.5a3.09,3.09,0,0,0,3.08,3.11l84.63.47a3,3,0,0,0,1.67-.48L148.07,57a3.09,3.09,0,0,0,0-5.21L130,40.31a3.08,3.08,0,0,0-1.64-.48l-84.65-.48A3.09,3.09,0,0,0,40.58,42.42Z"/><path id="Path_24-2" data-name="Path 24" class="cls-1" d="M38.06,154.06l-.13,23.08A3.09,3.09,0,0,0,41,180.25l84.63.47a3,3,0,0,0,1.68-.48l18.23-11.61a3.08,3.08,0,0,0,0-5.21L127.46,152a3.08,3.08,0,0,0-1.64-.48L41.17,151A3.09,3.09,0,0,0,38.06,154.06Z"/><g id="Group_21" data-name="Group 21"><g id="Group_7" data-name="Group 7"><path id="Path_21" data-name="Path 21" class="cls-2" d="M33,267.48v2.93a2.16,2.16,0,0,0,2.16,2.16H116a2.16,2.16,0,0,0,2.16-2.16v-2.93a2.16,2.16,0,0,0-2.16-2.16H81.52a2.16,2.16,0,0,1-2.16-2.15V2.43A2.15,2.15,0,0,0,77.21.28H72.34a2.15,2.15,0,0,0-2.15,2.15V263.17A2.16,2.16,0,0,1,68,265.32H35.17A2.16,2.16,0,0,0,33,267.48Z"/></g><g id="Group_7-2" data-name="Group 7" class="cls-3"><path id="Path_21-2" data-name="Path 21" class="cls-2" d="M39.18,270.63v2.94a2.16,2.16,0,0,0,2.16,2.15h80.84a2.15,2.15,0,0,0,2.15-2.15v-2.94a2.15,2.15,0,0,0-2.15-2.15H87.69a2.16,2.16,0,0,1-2.16-2.16V5.59a2.16,2.16,0,0,0-2.15-2.16H78.51a2.16,2.16,0,0,0-2.15,2.16V266.32a2.16,2.16,0,0,1-2.16,2.16H41.34A2.16,2.16,0,0,0,39.18,270.63Z"/></g></g><path id="Path_24-3" data-name="Path 24" class="cls-4" d="M33.14,146.78,33,169.86a3.09,3.09,0,0,0,3.07,3.1l84.63.48a3.1,3.1,0,0,0,1.68-.48l18.23-11.61a3.09,3.09,0,0,0,0-5.22l-18.08-11.47a3.17,3.17,0,0,0-1.64-.48l-84.65-.47A3.09,3.09,0,0,0,33.14,146.78Z"/><path id="Path_24-4" data-name="Path 24" class="cls-4" d="M33.14,37.22,33,60.3a3.09,3.09,0,0,0,3.07,3.1l84.63.48a3.1,3.1,0,0,0,1.68-.48l18.23-11.61a3.08,3.08,0,0,0,0-5.21L122.54,35.11a3.09,3.09,0,0,0-1.64-.49l-84.65-.47A3.09,3.09,0,0,0,33.14,37.22Z"/><path id="Path_24-5" data-name="Path 24" class="cls-1" d="M8,97.2l-.13,23.08a3.09,3.09,0,0,0,3.07,3.11l84.63.47a3,3,0,0,0,1.68-.48l18.23-11.61a3.08,3.08,0,0,0,0-5.21L97.38,95.09a3.08,3.08,0,0,0-1.64-.48l-84.65-.48A3.09,3.09,0,0,0,8,97.2Z"/><path id="Path_24-6" data-name="Path 24" class="cls-4" d="M.54,92,.41,115.08a3.08,3.08,0,0,0,3.07,3.1l84.63.48a3.12,3.12,0,0,0,1.68-.48L108,106.57a3.08,3.08,0,0,0,0-5.21L89.93,89.89a3.05,3.05,0,0,0-1.63-.49L3.65,88.93A3.09,3.09,0,0,0,.54,92Z"/><path class="cls-5" d="M54.81,55V43.19H53.08v-2.8h6.39v2.8H57.74V55Z"/><path class="cls-5" d="M61.34,54.07a5,5,0,0,1-.83-3.14v-5a3.37,3.37,0,0,1,1-2.62,4,4,0,0,1,2.76-.9c2.39,0,3.58,1.18,3.58,3.52v.9c0,.91,0,1.65,0,2.21H63.48v2.42a3,3,0,0,0,.14,1,.66.66,0,0,0,1.06.16,1,1,0,0,0,.17-.47,7.24,7.24,0,0,0,0-.77V50.18h3v.72A5,5,0,0,1,67,54.1a3.55,3.55,0,0,1-2.9,1A3.27,3.27,0,0,1,61.34,54.07Zm3.54-6.51V46c0-.9-.23-1.35-.67-1.35s-.75.45-.75,1.35v1.59Z"/><path class="cls-5" d="M69.28,55V40.3h3V55Z"/><path class="cls-5" d="M74.6,54.07a5,5,0,0,1-.83-3.14v-5a3.37,3.37,0,0,1,1-2.62,4,4,0,0,1,2.76-.9c2.39,0,3.58,1.18,3.58,3.52v.9c0,.91,0,1.65,0,2.21H76.74v2.42a3,3,0,0,0,.14,1,.66.66,0,0,0,1.06.16,1,1,0,0,0,.17-.47c0-.17,0-.43,0-.77V50.18h3v.72a5,5,0,0,1-.84,3.2,3.55,3.55,0,0,1-2.9,1A3.27,3.27,0,0,1,74.6,54.07Zm3.53-6.51V46q0-1.35-.66-1.35T76.72,46v1.59Z"/><path class="cls-5" d="M82.81,45.35h-.53l0-2.26h.51v-.85a1.77,1.77,0,0,1,2-2,4.32,4.32,0,0,1,1.53.23v1.84a1.28,1.28,0,0,0-.28-.05.28.28,0,0,0-.3.17,1.32,1.32,0,0,0-.07.51v.15h.65v2.3h-.58V55h-3Z"/><path class="cls-5" d="M87.57,51.27v-5a3.92,3.92,0,0,1,1-2.81,4.07,4.07,0,0,1,5.46,0,3.92,3.92,0,0,1,1,2.81v5c0,2.57-1.25,3.86-3.73,3.86S87.57,53.84,87.57,51.27Zm4.25,1.31a1.27,1.27,0,0,0,.17-.7V45.8c0-.73-.23-1.09-.7-1.09s-.7.36-.7,1.09v6.08a1.19,1.19,0,0,0,.18.7.57.57,0,0,0,.52.25A.58.58,0,0,0,91.82,52.58Z"/><path class="cls-5" d="M96.49,42.55h3v1.58a2.59,2.59,0,0,1,.65-1.24,1.6,1.6,0,0,1,1.22-.48,2.2,2.2,0,0,1,1.86.78,3.51,3.51,0,0,1,.6,2.2V55h-2.92v-9.3a1.35,1.35,0,0,0-.16-.69.53.53,0,0,0-.5-.29.59.59,0,0,0-.61.41,3.73,3.73,0,0,0-.14,1.12V55h-3Z"/><path class="cls-5" d="M29.21,111.23V96.63h4.45l1.22,8.91,1.23-8.91h4.48v14.6H37.93V100.71l-1.69,10.52H33.62l-1.78-10.52v10.52Z"/><path class="cls-5" d="M42.49,110.41a5.68,5.68,0,0,1-.54-2.74,5.16,5.16,0,0,1,.39-2.25,2.53,2.53,0,0,1,1.06-1.15,12.69,12.69,0,0,1,2.07-.8l.82-.28v-1.27a1.27,1.27,0,0,0-.2-.76.57.57,0,0,0-.46-.26.52.52,0,0,0-.42.22.92.92,0,0,0-.18.59v.75H42.14v-.41A3.4,3.4,0,0,1,43,99.44a4.09,4.09,0,0,1,2.8-.79,3.77,3.77,0,0,1,2.51.81,2.8,2.8,0,0,1,1,2.29v9.48h-3v-1.47a2.43,2.43,0,0,1-.7,1.19,1.72,1.72,0,0,1-1.15.42A2.07,2.07,0,0,1,42.49,110.41Zm3.64-1.63a1.6,1.6,0,0,0,.14-.69v-3.47a2.3,2.3,0,0,0-1,.65,1.68,1.68,0,0,0-.31,1.09V108q0,1.11.66,1.11A.51.51,0,0,0,46.13,108.78Z"/><path class="cls-5" d="M50.78,98V95.88h3V98Zm0,13.27V98.79h3v12.44Z"/><path class="cls-5" d="M55.3,111.23V96.55h3v14.68Z"/><path class="cls-5" d="M50.08,164.55V150h5.85v2.84H53v2.33h2.75v2.8H53v6.63Z"/><path class="cls-5" d="M63.64,153.14a4,4,0,0,1,.89,2.69v5q0,3.85-3.73,3.86a4.77,4.77,0,0,1-1.7-.27L58.42,166l-1.12-.43.77-1.8a3.87,3.87,0,0,1-1-2.94v-5a3.86,3.86,0,0,1,1-2.81A3.56,3.56,0,0,1,60.8,152a4,4,0,0,1,1.91.43l.83-1.64,1.17.48Zm-2.14,2.22c0-.73-.23-1.09-.7-1.09s-.69.36-.69,1.09v6.08a1.19,1.19,0,0,0,.17.7.58.58,0,0,0,.52.25.58.58,0,0,0,.53-.25,1.19,1.19,0,0,0,.17-.7Z"/><path class="cls-5" d="M65.77,164.55V149.86h3v14.69Z"/><path class="cls-5" d="M71.62,166.16a4,4,0,0,1-1.48-.81l1-1.72a4.19,4.19,0,0,0,2.16.65,1.29,1.29,0,0,0,1.05-.44,1.88,1.88,0,0,0,.36-1.21V162a1.73,1.73,0,0,1-1.89,1.28,2.13,2.13,0,0,1-1.88-.87,4,4,0,0,1-.6-2.31v-4.68a4.71,4.71,0,0,1,.55-2.52,2.09,2.09,0,0,1,1.93-.88,1.76,1.76,0,0,1,1.89,1.53v-1.39h3v10.33a4,4,0,0,1-1,3,4.34,4.34,0,0,1-3.09.92A8.19,8.19,0,0,1,71.62,166.16Zm3.11-6.44v-4.43a1.37,1.37,0,0,0-.21-.72.59.59,0,0,0-.51-.34.53.53,0,0,0-.52.28,1.84,1.84,0,0,0-.14.78v4.43a2.52,2.52,0,0,0,.14.91A.52.52,0,0,0,74,161C74.5,161,74.73,160.56,74.73,159.72Z"/><path class="cls-5" d="M83.55,160.83v-5a3.9,3.9,0,0,1,1-2.81A4.07,4.07,0,0,1,90,153a3.86,3.86,0,0,1,1,2.81v5q0,3.85-3.73,3.86T83.55,160.83Zm4.25,1.31a1.27,1.27,0,0,0,.17-.7v-6.08c0-.73-.23-1.09-.7-1.09s-.69.36-.69,1.09v6.08a1.19,1.19,0,0,0,.17.7.58.58,0,0,0,.52.25A.58.58,0,0,0,87.8,162.14Z"/><path class="cls-5" d="M92.2,161l0-1h3v1.46a1.18,1.18,0,0,0,.17.68.67.67,0,0,0,.56.23c.4,0,.6-.33.6-1a2,2,0,0,0-.28-1.13,4.09,4.09,0,0,0-.89-.86l-1.58-1.23a4.14,4.14,0,0,1-1.18-1.3,4.07,4.07,0,0,1-.36-1.89,2.62,2.62,0,0,1,.51-1.63,3.15,3.15,0,0,1,1.33-1,4.8,4.8,0,0,1,1.85-.34c2.42,0,3.62,1.2,3.62,3.61v.23H96.49v-.47a1.75,1.75,0,0,0-.15-.76.49.49,0,0,0-.48-.31.61.61,0,0,0-.47.18.66.66,0,0,0-.16.48,1.22,1.22,0,0,0,.53,1l1.83,1.35a5.68,5.68,0,0,1,1.52,1.59,4.07,4.07,0,0,1,.52,2.16,3.52,3.52,0,0,1-1,2.67,3.83,3.83,0,0,1-2.76.94Q92.2,164.69,92.2,161Z"/></svg>