<svg xmlns="http://www.w3.org/2000/svg" viewBox="0 0 86.44 149.2"><defs><style>.cls-1{fill:none;stroke:#000;stroke-miterlimit:10;stroke-width:1.5px;}</style></defs><g id="Layer_2" data-name="Layer 2"><g id="Layer_1-2" data-name="Layer 1"><path class="cls-1" d="M17.93,12.91s29.16-28.47,51,1.71c0,0,5.51-6.73,9.27-3.4S84.37,22.9,84.07,27s-1,14.22-5.41,19S67.92,42.1,67.92,42.1s3,27.78-19.12,28.19S14.38,61.13,16,39.05C16,39.05,2.9,53,.94,32.24S12.91-.73,17.93,12.91Z"/><path class="cls-1" d="M18.27,55.77s-21.13,21.54-16,88.1c0,0,3.77,3.28,12.89,1.95l.77-10.43.08,12.5,17.18-1.75.75-10.21.1,12.28s11.26-3.18,14.18-2l.71-9.67.22,10.74s3.91,1.29,11-.19l-.26-10,1.33,9.12L72.38,145l-.19-11,1.18,11.12s9,.66,12.27-3.11a299.48,299.48,0,0,0-1.91-39.08C81.56,84.44,77,64,67.7,52.8"/><path class="cls-1" d="M13.5,62.84a139.12,139.12,0,0,0-2.56,15.43s2.33,1.52,7.91-1.61c0,0,2.47-2.63,3.29-1.48s-.74-7.74,1.92-11.6"/><path class="cls-1" d="M22.14,75.18s2,6.41,9.54,3.61c0,0,5,3.6,2.92-9.79"/><path class="cls-1" d="M34.77,77.82s3,5.1,12.27,2a19.27,19.27,0,0,1-.85-9.57"/><path class="cls-1" d="M69.67,55.42s1.33,25.64-6,23.51c0,0-2.81,3.76-5.66-10.94-.37-1.92,1,3.57,1.14,5.08a18.7,18.7,0,0,1-.2,6.25s-9.18,6.52-9.53,3-3.48-9.71-3.48-9.71"/><path class="cls-1" d="M68.55,74l.06,14s2.88.2,3.69-1.06c0,0,.94,4.59,7.53,1.25L78.74,76.32"/><path class="cls-1" d="M77.14,71.12s3.63,6.24-1.27,7.68-5.72.29-5.72.29a62.15,62.15,0,0,1-1.08-8.22"/><path class="cls-1" d="M16.34,77.86l-1.67,10S9,93.27,4.4,90.48"/><path class="cls-1" d="M14.67,87.91l-.08,2.23,5.29-1.36,4.83.8S26.89,88,26.4,79.36"/><polyline class="cls-1" points="25.99 86.96 25.68 93.27 29.49 92.62 29.88 89.64"/><path class="cls-1" d="M52.74,82.85l.95,11.89-7.07-1.18a8.11,8.11,0,0,0-5.8,2.22s-1.64-1.1-1.78-9.46"/><path class="cls-1" d="M53.35,91.73s4-2,6.06-.83S66.55,95,70.23,94.53a10,10,0,0,0,.12-6.66"/><path class="cls-1" d="M65.32,93.49l-.08,15.19s11.59-2.13,12.53-8.06l-1.5-11.76"/><path class="cls-1" d="M83.73,102.9s-3,3.19-8.18,1.36"/><polyline class="cls-1" points="2.19 106.25 17.32 104.24 17.9 88.8"/><path class="cls-1" d="M11.84,105s-.19,4.79,16.74,5.66c0,0-1.28-10.27.91-18L37.77,94,40,80.67"/><path class="cls-1" d="M28.24,105.66l4.45,3.7s7.66.56,9.83-2.27l-.14-13"/><polyline class="cls-1" points="42.52 107.09 48.3 105.87 53.5 108.91 53.69 94.74"/><path class="cls-1" d="M53.59,102.29s7.09-6.25,11.67,1.47"/><polyline class="cls-1" points="6.15 105.72 4.49 119.63 21.29 115.33 22.24 109.58"/><path class="cls-1" d="M2,130.59l10.39,3.23s2.9-1.4,1.56-16.62"/><path class="cls-1" d="M18.2,126.34c-2.85,19.93-11.52,13.78-11.52,13.78L6,132.76l-.19-1"/><path class="cls-1" d="M17.27,116.36l-1,9.67s6,2.38,13.42-2.21"/><path class="cls-1" d="M26.48,110.74l.32,10.63s3.11,4.77,7.05,5.42l6.27-5.25-1-12.62"/><path class="cls-1" d="M70.76,107.25l.48,14.43a36.23,36.23,0,0,1,5.72-2,12.43,12.43,0,0,1,4.26-.41l4.58,4"/><path class="cls-1" d="M77,119.7l1.41,10.78s.89,4.35,7.19,5.39"/><path class="cls-1" d="M50,106.87V117s6.12,6.58,12.08,6c0,0,5-3.81,4.88-14"/><path class="cls-1" d="M38.46,122.93s7.11.42,9.15,3.45l5,1.24-.78-8.92"/><polyline class="cls-1" points="65 119.29 65.67 132.57 77.08 122.52"/><polyline class="cls-1" points="17.03 133.48 19.56 139.1 29.65 138.18 30.73 125.42"/><path class="cls-1" d="M30.37,133.82s7.27,6.78,9.41,6.12l-.19-8.53"/><path class="cls-1" d="M36.13,124.88s4.2,11.75,9.92,10.85l6.08,2.07-1-10.43"/><path class="cls-1" d="M51.92,132.08s6.53,1.87,9-2.3l-.52-6.85"/><path class="cls-1" d="M56.18,132.45l.53,3.2,11,4.74.61-10.17s1.48,5.58,7.83,4.1l2.63-1.68"/><polygon class="cls-1" points="27.85 51.56 36.15 52.87 43.92 53.37 52.94 52.44 56.52 50.01 57.28 50.05 53.57 54 44.7 56.09 36.31 55.54 28.87 53.53 27.85 51.56"/><polyline class="cls-1" points="28.87 53.53 27.25 54.95 33.73 60.71 46.68 60.79 56.13 56.07 56.45 51.08"/><path class="cls-1" d="M15.92,20.34s-2.85-5.82-4.58-4.91-1.6-2.11-4.54,4.49c0,0-1.12,7.25,1.59,9.56s6,0,6,0"/><path class="cls-1" d="M71.15,23.13s.84-4.58,4.09-5.55S79,25.81,79,25.81s0,7.23-3.69,7.56-3.86-2.73-3.86-2.73"/><path d="M47.54,11.72l2.71-1.56L62.57,12.7l1.37,1s.82.79-.08,1.23l-.9.44-14.07-.92S47.48,12.58,47.54,11.72Z"/><path d="M22.59,14l1.84-1.62,11.41-1.86,2.54,1-.65,1.7a4.77,4.77,0,0,1-2.12.73c-.86-.06-12.21.94-12.21.94A.85.85,0,0,1,22.59,14Z"/><polyline class="cls-1" points="47.67 26.32 53.21 21.17 62.22 23.28 65.56 30.36"/><polyline class="cls-1" points="48.75 25.31 51.81 30.98 60.1 32.29 64.59 28.3"/><polyline class="cls-1" points="21.05 26.82 24.23 31.14 31.67 29.34 34.16 26.38 34.36 23.28 30.69 19.75 22.96 21.53 20.41 28.6"/><path d="M28.13,29.87s-.76-.05-1.42-1.62.79-4.09.79-4.09a3.59,3.59,0,0,1,2.06-1.44c1.34-.29,2.76,1.33,2.76,1.33a4.9,4.9,0,0,1,.42,4C31.92,30.11,28.13,29.87,28.13,29.87Z"/><path d="M54.08,31.34s-1.82-1.47-.86-4.45a3.79,3.79,0,0,1,3.68-2.84,3.23,3.23,0,0,1,3.1,2,4.46,4.46,0,0,1-.1,3.56,4.86,4.86,0,0,1-2.81,2.21Z"/><polyline class="cls-1" points="45.92 16.13 46 33.65 53.18 34.71 52.24 39.15 47.42 39.84 42.62 41.81 35.89 41.37 31.49 38.8 28.5 37.84 28.19 32.59 34.21 32.12 37.91 15.6"/><polyline class="cls-1" points="41.76 45.49 44.31 43.84 45.15 40.77"/><polyline class="cls-1" points="28.7 32.54 34.06 34.75 43.5 36.31 52.6 35.12"/><polyline class="cls-1" points="46 33.65 43.68 36.01 42.77 40.9 42.1 45.54 36.34 44.59 36.06 40.38 34.67 34.52 34.22 32.08"/></g></g></svg>