<svg id="Layer_1" data-name="Layer 1" xmlns="http://www.w3.org/2000/svg" viewBox="0 0 200 200"><defs><style>.cls-1{fill:none;stroke:#fff;stroke-miterlimit:10;stroke-width:2px;}</style></defs><path class="cls-1" d="M34.16,171.21s23.57-34.06,41.57-13.66c0,0,6.43,7.64,14.26.09s10.43-8.8,16.92-8.75,9,3.86,12.9,9,9,3.86,11.66.08,3.93-6.31,11.72-7.52S169,167,169,167"/><path class="cls-1" d="M34.06,185.14s23.57-34,41.58-13.66c0,0,6.43,7.65,14.26.1s10.43-8.8,16.91-8.76,9,3.86,12.9,9,9,3.86,11.66.08,3.94-6.31,11.72-7.53S168.9,181,168.9,181"/><path class="cls-1" d="M56.34,151.08,38.55,99s31.3-26.4,58.57-33.82c0,0,42.7,10.42,64.57,34.64L148.37,151.7"/><line class="cls-1" x1="97.12" y1="65.2" x2="99.31" y2="123.49"/><path class="cls-1" d="M112.43,85.57S108.57,95.68,116.34,97s5.28-12.63,1.4-13.93"/><path class="cls-1" d="M84.24,86.65S88,96.81,80.16,98s-5.1-12.71-1.2-14"/><path class="cls-1" d="M62.28,81.84s-2.73-19.43-2.68-27c0,0,37.72-18.75,79.1-3.27,0,0,1.41,7.43-1.42,29.67"/><path class="cls-1" d="M75.2,48.58,74,37.17s20.51-9.76,47.83-2.1l-.69,11.75"/><path class="cls-1" d="M80.36,60.2s18.15-7.66,35-1.22"/><line class="cls-1" x1="97.35" y1="32.11" x2="97.42" y2="22.44"/></svg>