<svg id="Layer_1" data-name="Layer 1" xmlns="http://www.w3.org/2000/svg" viewBox="0 0 200 200"><defs><style>.cls-1{fill:none;stroke:#fff;stroke-miterlimit:10;stroke-width:1.5px;}.cls-2{fill:#fff;}</style></defs><path class="cls-1" d="M69.43,30.58S105-4.17,131.7,32.67c0,0,6.72-8.23,11.32-4.15s7.52,14.26,7.15,19.21-1.27,17.35-6.6,23.19-13.12-4.71-13.12-4.71,3.63,33.91-23.34,34.42-42-11.19-40-38.14c0,0-16,17-18.39-8.31S63.31,13.93,69.43,30.58Z"/><path class="cls-1" d="M69.85,82.9S44.06,109.19,50.32,190.43c0,0,4.6,4,15.74,2.38L67,180.08l.1,15.26,21-2.13L89,180.75l.12,15s13.75-3.88,17.31-2.39l.87-11.8.26,13.1s4.78,1.58,13.48-.23l-.32-12.26,1.63,11.13,13.57-1.45-.23-13.48,1.45,13.57s10.95.81,15-3.79a366.61,366.61,0,0,0-2.32-47.71c-2.65-22.53-8.17-47.43-19.58-61.16"/><path class="cls-1" d="M64,91.52a169.35,169.35,0,0,0-3.12,18.85s2.83,1.84,9.65-2c0,0,3-3.22,4-1.81s-.91-9.45,2.34-14.16"/><path class="cls-1" d="M74.58,106.59S77,114.41,86.22,111c0,0,6.14,4.4,3.56-11.95"/><path class="cls-1" d="M90,109.82s3.62,6.22,15,2.48a23.33,23.33,0,0,1-1-11.68"/><path class="cls-1" d="M132.6,82.46s1.62,31.3-7.33,28.7c0,0-3.43,4.59-6.91-13.35-.45-2.34,1.19,4.36,1.4,6.2a23.26,23.26,0,0,1-.25,7.63s-11.21,8-11.63,3.64-4.25-11.85-4.25-11.85"/><path class="cls-1" d="M131.22,105.15l.08,17.07s3.51.24,4.5-1.3c0,0,1.15,5.6,9.2,1.52L143.66,108"/><path class="cls-1" d="M141.72,101.63s4.42,7.62-1.56,9.38-7,.35-7,.35a76.57,76.57,0,0,1-1.32-10"/><path class="cls-1" d="M67.49,109.86l-2,12.27s-6.92,6.54-12.54,3.14"/><path class="cls-1" d="M65.46,122.13l-.1,2.73,6.46-1.67,5.89,1s2.66-2,2.07-12.47"/><polyline class="cls-1" points="79.28 120.97 78.89 128.67 83.55 127.87 84.02 124.24"/><path class="cls-1" d="M111.93,116l1.16,14.51L104.46,129s-4.37-.23-7.08,2.71c0,0-2-1.34-2.17-11.55"/><path class="cls-1" d="M112.68,126.79s4.87-2.39,7.39-1,8.72,4.95,13.21,4.42a12.25,12.25,0,0,0,.15-8.11"/><path class="cls-1" d="M127.28,128.93l-.1,18.55s14.15-2.6,15.3-9.83l-1.83-14.37"/><path class="cls-1" d="M149.76,140.42s-3.63,3.9-10,1.67"/><polyline class="cls-1" points="50.23 144.52 68.69 142.06 69.4 123.21"/><path class="cls-1" d="M62,143s-.24,5.85,20.43,6.91c0,0-1.57-12.53,1.11-22l10.11,1.68,2.69-16.26"/><path class="cls-1" d="M82,143.79l5.43,4.53s9.36.67,12-2.78l-.16-15.9"/><polyline class="cls-1" points="99.45 145.54 106.5 144.05 112.86 147.76 113.09 130.46"/><path class="cls-1" d="M113,139.68s8.65-7.62,14.24,1.79"/><polyline class="cls-1" points="55.05 143.87 53.03 160.85 73.53 155.59 74.7 148.57"/><path class="cls-1" d="M50,174.23l12.68,3.94s3.53-1.71,1.9-20.29"/><path class="cls-1" d="M69.77,169c-3.48,24.32-14.06,16.82-14.06,16.82l-.84-9-.23-1.2"/><path class="cls-1" d="M68.63,156.85l-1.17,11.81s7.35,2.91,16.38-2.7"/><path class="cls-1" d="M79.88,150l.39,13s3.79,5.82,8.6,6.62l7.66-6.41-1.26-15.41"/><path class="cls-1" d="M133.93,145.73l.58,17.61a44.75,44.75,0,0,1,7-2.41,15.24,15.24,0,0,1,5.19-.5l5.59,4.86"/><path class="cls-1" d="M141.5,160.93l1.71,13.16s1.1,5.31,8.78,6.59"/><path class="cls-1" d="M108.59,145.27v12.32s7.47,8,14.74,7.29c0,0,6-4.66,6-17"/><path class="cls-1" d="M94.5,164.88s8.68.5,11.16,4.2l6.17,1.52-1-10.89"/><polyline class="cls-1" points="126.89 160.43 127.72 176.65 141.63 164.37"/><polyline class="cls-1" points="68.34 177.75 71.43 184.62 83.74 183.49 85.06 167.92"/><path class="cls-1" d="M84.62,178.17s8.88,8.27,11.49,7.47l-.24-10.41"/><path class="cls-1" d="M91.66,167.26s5.12,14.34,12.11,13.24l7.41,2.53-1.24-12.74"/><path class="cls-1" d="M110.93,176.05s8,2.28,11-2.81l-.63-8.37"/><path class="cls-1" d="M116.13,176.5l.65,3.9,13.44,5.78.75-12.4s1.81,6.8,9.56,5l3.21-2.05"/><polygon class="cls-1" points="81.55 77.76 91.68 79.35 101.17 79.97 112.17 78.83 116.55 75.86 117.47 75.92 112.94 80.74 102.11 83.29 91.87 82.62 82.79 80.16 81.55 77.76"/><polyline class="cls-1" points="82.79 80.16 80.81 81.89 88.73 88.92 104.53 89.02 116.06 83.27 116.46 77.17"/><path class="cls-1" d="M67,39.65s-3.47-7.11-5.59-6-2-2.58-5.54,5.49c0,0-1.36,8.84,1.94,11.66s7.33,0,7.33,0"/><path class="cls-1" d="M134.4,43.06s1-5.59,5-6.78,4.57,10,4.57,10,0,8.82-4.51,9.23-4.71-3.34-4.71-3.34"/><path class="cls-2" d="M105.58,29.12l3.31-1.91,15,3.11,1.68,1.17s1,1-.1,1.51l-1.1.54-17.17-1.13S105.51,30.18,105.58,29.12Z"/><path class="cls-2" d="M75.12,31.93l2.25-2L91.3,27.68,94.39,29,93.6,31a5.78,5.78,0,0,1-2.58.9c-1-.07-14.91,1.14-14.91,1.14A1,1,0,0,1,75.12,31.93Z"/><polyline class="cls-1" points="105.74 46.94 112.5 40.66 123.49 43.24 127.58 51.88"/><polyline class="cls-1" points="107.06 45.72 110.79 52.64 120.92 54.23 126.39 49.36"/><polyline class="cls-1" points="73.25 47.56 77.13 52.83 86.21 50.63 89.25 47.02 89.5 43.23 85.02 38.93 75.57 41.1 72.47 49.73"/><path class="cls-2" d="M81.88,51.28s-.92-.06-1.73-2,1-5,1-5a4.31,4.31,0,0,1,2.51-1.75C85.27,42.2,87,44.17,87,44.17a6,6,0,0,1,.51,4.91C86.51,51.58,81.88,51.28,81.88,51.28Z"/><path class="cls-2" d="M113.57,53.08s-2.23-1.8-1.06-5.44A4.64,4.64,0,0,1,117,44.18a4,4,0,0,1,3.79,2.43,5.4,5.4,0,0,1-.13,4.35,5.81,5.81,0,0,1-3.42,2.69Z"/><polyline class="cls-1" points="103.61 34.5 103.7 55.9 112.47 57.19 111.32 62.61 105.44 63.45 99.57 65.86 91.36 65.32 85.99 62.18 82.34 61.01 81.96 54.6 89.31 54.03 93.82 33.86"/><polyline class="cls-1" points="98.53 70.35 101.64 68.33 102.66 64.59"/><polyline class="cls-1" points="82.59 54.55 89.13 57.24 100.65 59.15 111.76 57.69"/><polyline class="cls-1" points="103.7 55.9 100.86 58.78 99.76 64.74 98.94 70.41 91.91 69.25 91.56 64.11 89.88 56.95 89.32 53.98"/></svg>